REM DIRINDEX 1\5,1\2\6,1\2\7,1\3\8,1\3\9,1\4\10,1\4\11,1\4\12
REM DIRNAME folder01,folder02,folder03,folder04,folder05,folder06,folder07,folder08,folder09,folder10,folder11,folder12
TITLE ""
FILE "EJE_DB3000_5th_1A_13.mp3" MP3
  TRACK 01 AUDIO
    TITLE "0:"
    INDEX 01 00:00:00
  TRACK 02 AUDIO
    TITLE "10:cjc026_07224"
    INDEX 01 00:00:05
  TRACK 03 AUDIO
    TITLE "0:"
    INDEX 01 00:00:64
  TRACK 04 AUDIO
    TITLE "11:cjc026_07225"
    INDEX 01 00:01:15
  TRACK 05 AUDIO
    TITLE "0:"
    INDEX 01 00:02:16
  TRACK 06 AUDIO
    TITLE "12:cjc026_07226"
    INDEX 01 00:02:43
  TRACK 07 AUDIO
    TITLE "0:"
    INDEX 01 00:03:27
  TRACK 08 AUDIO
    TITLE "10:cjc026_07227"
    INDEX 01 00:03:55
  TRACK 09 AUDIO
    TITLE "0:"
    INDEX 01 00:04:44
  TRACK 10 AUDIO
    TITLE "11:cjc026_07228"
    INDEX 01 00:04:70
  TRACK 11 AUDIO
    TITLE "0:"
    INDEX 01 00:06:06
  TRACK 12 AUDIO
    TITLE "12:cjc026_07229"
    INDEX 01 00:06:30
  TRACK 13 AUDIO
    TITLE "0:"
    INDEX 01 00:07:23
  TRACK 14 AUDIO
    TITLE "10:cjc026_07230"
    INDEX 01 00:07:49
  TRACK 15 AUDIO
    TITLE "0:"
    INDEX 01 00:08:36
  TRACK 16 AUDIO
    TITLE "11:cjc026_07231"
    INDEX 01 00:08:64
  TRACK 17 AUDIO
    TITLE "0:"
    INDEX 01 00:10:08
  TRACK 18 AUDIO
    TITLE "12:cjc026_07232"
    INDEX 01 00:10:33
  TRACK 19 AUDIO
    TITLE "0:"
    INDEX 01 00:11:21
  TRACK 20 AUDIO
    TITLE "10:cjc026_07233"
    INDEX 01 00:11:48
  TRACK 21 AUDIO
    TITLE "0:"
    INDEX 01 00:12:36
  TRACK 22 AUDIO
    TITLE "11:cjc026_07234"
    INDEX 01 00:12:61
  TRACK 23 AUDIO
    TITLE "0:"
    INDEX 01 00:13:65
  TRACK 24 AUDIO
    TITLE "12:cjc026_07235"
    INDEX 01 00:14:15
  TRACK 25 AUDIO
    TITLE "0:"
    INDEX 01 00:15:05
  TRACK 26 AUDIO
    TITLE "10:cjc026_07236"
    INDEX 01 00:15:30
  TRACK 27 AUDIO
    TITLE "0:"
    INDEX 01 00:17:00
  TRACK 28 AUDIO
    TITLE "11:cjc026_07237"
    INDEX 01 00:17:25
  TRACK 29 AUDIO
    TITLE "0:"
    INDEX 01 00:18:35
  TRACK 30 AUDIO
    TITLE "12:cjc026_07238"
    INDEX 01 00:18:60
  TRACK 31 AUDIO
    TITLE "0:"
    INDEX 01 00:20:32
  TRACK 32 AUDIO
    TITLE "10:cjc026_07239"
    INDEX 01 00:20:57
  TRACK 33 AUDIO
    TITLE "0:"
    INDEX 01 00:22:07
  TRACK 34 AUDIO
    TITLE "11:cjc026_07240"
    INDEX 01 00:22:32
  TRACK 35 AUDIO
    TITLE "0:"
    INDEX 01 00:23:44
  TRACK 36 AUDIO
    TITLE "12:cjc026_07241"
    INDEX 01 00:23:69
  TRACK 37 AUDIO
    TITLE "0:"
    INDEX 01 00:25:19
  TRACK 38 AUDIO
    TITLE "10:cjc026_07242"
    INDEX 01 00:25:46
  TRACK 39 AUDIO
    TITLE "0:"
    INDEX 01 00:26:30
  TRACK 40 AUDIO
    TITLE "11:cjc026_07243"
    INDEX 01 00:26:58
  TRACK 41 AUDIO
    TITLE "0:"
    INDEX 01 00:27:53
  TRACK 42 AUDIO
    TITLE "12:cjc026_07244"
    INDEX 01 00:28:04
  TRACK 43 AUDIO
    TITLE "0:"
    INDEX 01 00:28:60
  TRACK 44 AUDIO
    TITLE "10:cjc026_07245"
    INDEX 01 00:29:15
  TRACK 45 AUDIO
    TITLE "0:"
    INDEX 01 00:30:05
  TRACK 46 AUDIO
    TITLE "11:cjc026_07246"
    INDEX 01 00:30:30
  TRACK 47 AUDIO
    TITLE "0:"
    INDEX 01 00:31:31
  TRACK 48 AUDIO
    TITLE "12:cjc026_07247"
    INDEX 01 00:31:57
  TRACK 49 AUDIO
    TITLE "0:"
    INDEX 01 00:32:45
  TRACK 50 AUDIO
    TITLE "10:cjc026_07248"
    INDEX 01 00:32:70
  TRACK 51 AUDIO
    TITLE "0:"
    INDEX 01 00:33:62
  TRACK 52 AUDIO
    TITLE "11:cjc026_07249"
    INDEX 01 00:34:14
  TRACK 53 AUDIO
    TITLE "0:"
    INDEX 01 00:35:41
  TRACK 54 AUDIO
    TITLE "12:cjc026_07250"
    INDEX 01 00:35:66
  TRACK 55 AUDIO
    TITLE "0:"
    INDEX 01 00:36:60
  TRACK 56 AUDIO
    TITLE "10:cjc026_07251"
    INDEX 01 00:37:10
  TRACK 57 AUDIO
    TITLE "0:"
    INDEX 01 00:38:02
  TRACK 58 AUDIO
    TITLE "11:cjc026_07252"
    INDEX 01 00:38:28
  TRACK 59 AUDIO
    TITLE "0:"
    INDEX 01 00:39:23
  TRACK 60 AUDIO
    TITLE "12:cjc026_07253"
    INDEX 01 00:39:47
  TRACK 61 AUDIO
    TITLE "0:"
    INDEX 01 00:40:38
